<?xml version="1.0" encoding="UTF-8" standalone="no"?>
<!DOCTYPE svg PUBLIC "-//W3C//DTD SVG 1.1//EN"
 "http://www.w3.org/Graphics/SVG/1.1/DTD/svg11.dtd">
<!-- Generated by graphviz version 2.26.3 (20100126.1600)
 -->
<!-- Title: ABC Pages: 1 -->
<svg width="890pt" height="328pt"
 viewBox="0.00 0.00 890.00 328.00" xmlns="http://www.w3.org/2000/svg" xmlns:xlink="http://www.w3.org/1999/xlink">
<g id="graph1" class="graph" transform="scale(1 1) rotate(0) translate(4 324)">
<title>ABC</title>
<polygon fill="white" stroke="white" points="-4,5 -4,-324 887,-324 887,5 -4,5"/>
<g id="graph2" class="cluster"><title>cluster1</title>
<polygon fill="none" stroke="black" points="269,-8 269,-156 613,-156 613,-8 269,-8"/>
<text text-anchor="start" x="408.5" y="-139.4" font-family="Times,serif" font-size="14.00">A &lt;&#45; aAc/b</text>
<text text-anchor="middle" x="441" y="-124.4" font-family="Times,serif" font-size="14.00"> </text>
</g>
<g id="graph3" class="cluster"><title>cluster2</title>
<polygon fill="none" stroke="black" points="8,-164 8,-312 874,-312 874,-164 8,-164"/>
<text text-anchor="start" x="16" y="-295.4" font-family="Times,serif" font-size="14.00">A &lt;&#45; aAa/a</text>
<text text-anchor="middle" x="441" y="-280.4" font-family="Times,serif" font-size="14.00">Assume smallest possible (advance first instead of recurse) until/unless another comes, in which case go back to path that leads to the next smallest...</text>
</g>
<!-- A -->
<g id="node2" class="node"><title>A</title>
<ellipse fill="#eeeeee" stroke="black" cx="295" cy="-63" rx="18" ry="18"/>
<text text-anchor="middle" x="295" y="-57.9" font-family="Times,serif" font-size="14.00">A</text>
</g>
<!-- S2 -->
<g id="node4" class="node"><title>S2</title>
<ellipse fill="none" stroke="black" cx="391" cy="-34" rx="18" ry="18"/>
<text text-anchor="middle" x="391" y="-28.9" font-family="Times,serif" font-size="14.00">S2</text>
</g>
<!-- A&#45;&gt;S2 -->
<g id="edge3" class="edge"><title>A&#45;&gt;S2</title>
<path fill="none" stroke="black" d="M312.608,-57.681C326.952,-53.3478 347.448,-47.1563 363.885,-42.1909"/>
<polygon fill="black" stroke="black" points="364.943,-45.5276 373.504,-39.2853 362.919,-38.8267 364.943,-45.5276"/>
<text text-anchor="start" x="331" y="-63.9" font-family="Times,serif" font-size="9.00">{a}</text>
<text text-anchor="middle" x="343" y="-53.9" font-family="Times,serif" font-size="9.00">CS[+]</text>
</g>
<!-- §1 -->
<g id="node6" class="node"><title>§1</title>
<ellipse fill="#ddeedd" stroke="black" cx="583" cy="-63" rx="18" ry="18"/>
<ellipse fill="none" stroke="black" cx="583" cy="-63" rx="22" ry="22"/>
<text text-anchor="middle" x="583" y="-57.9" font-family="Times,serif" font-size="14.00">§1</text>
</g>
<!-- A&#45;&gt;§1 -->
<g id="edge5" class="edge"><title>A&#45;&gt;§1</title>
<path fill="none" stroke="black" d="M310.421,-72.5653C325.666,-81.4165 349.984,-93.9448 373,-99 429.433,-111.395 446.509,-111.125 503,-99 521.079,-95.1196 540.003,-86.8231 554.904,-79.1718"/>
<polygon fill="black" stroke="black" points="556.887,-82.0813 564.066,-74.2899 553.595,-75.9036 556.887,-82.0813"/>
<text text-anchor="start" x="427" y="-120.9" font-family="Times,serif" font-size="9.00">{b}</text>
<text text-anchor="middle" x="438" y="-110.9" font-family="Times,serif" font-size="9.00">CS[0]</text>
</g>
<!-- S2&#45;&gt;S2 -->
<g id="edge7" class="edge"><title>S2&#45;&gt;S2</title>
<path fill="none" stroke="black" d="M382.984,-50.2903C381.051,-60.3892 383.723,-70 391,-70 395.662,-70 398.434,-66.0557 399.316,-60.5656"/>
<polygon fill="black" stroke="black" points="402.807,-60.1839 399.016,-50.2903 395.81,-60.3881 402.807,-60.1839"/>
<text text-anchor="start" x="379" y="-81.9" font-family="Times,serif" font-size="9.00">{a}</text>
<text text-anchor="middle" x="391" y="-71.9" font-family="Times,serif" font-size="9.00">CS[+]</text>
</g>
<!-- S3 -->
<g id="node9" class="node"><title>S3</title>
<ellipse fill="none" stroke="black" cx="485" cy="-34" rx="18" ry="18"/>
<text text-anchor="middle" x="485" y="-28.9" font-family="Times,serif" font-size="14.00">S3</text>
</g>
<!-- S2&#45;&gt;S3 -->
<g id="edge9" class="edge"><title>S2&#45;&gt;S3</title>
<path fill="none" stroke="black" d="M409.124,-34C422.648,-34 441.381,-34 456.849,-34"/>
<polygon fill="black" stroke="black" points="456.932,-37.5001 466.931,-34 456.931,-30.5001 456.932,-37.5001"/>
<text text-anchor="middle" x="438" y="-35.9" font-family="Times,serif" font-size="9.00">{b}</text>
</g>
<!-- S3&#45;&gt;§1 -->
<g id="edge13" class="edge"><title>S3&#45;&gt;§1</title>
<path fill="none" stroke="black" d="M502.52,-39.1846C516.289,-43.2591 535.809,-49.0354 552.177,-53.8788"/>
<polygon fill="black" stroke="black" points="551.298,-57.2689 561.881,-56.7504 553.285,-50.5566 551.298,-57.2689"/>
<text text-anchor="start" x="521" y="-63.9" font-family="Times,serif" font-size="9.00">{c}</text>
<text text-anchor="middle" x="532" y="-53.9" font-family="Times,serif" font-size="9.00">CS[0]</text>
</g>
<!-- S3&#45;&gt;S3 -->
<g id="edge11" class="edge"><title>S3&#45;&gt;S3</title>
<path fill="none" stroke="black" d="M476.984,-50.2903C475.051,-60.3892 477.723,-70 485,-70 489.662,-70 492.434,-66.0557 493.316,-60.5656"/>
<polygon fill="black" stroke="black" points="496.807,-60.1839 493.016,-50.2903 489.81,-60.3881 496.807,-60.1839"/>
<text text-anchor="start" x="474.5" y="-81.9" font-family="Times,serif" font-size="9.00">{c}</text>
<text text-anchor="middle" x="485" y="-71.9" font-family="Times,serif" font-size="9.00">CS[&#45;]</text>
</g>
<!-- §2 -->
<g id="node13" class="node"><title>§2</title>
<ellipse fill="#ddeedd" stroke="black" cx="583" cy="-198" rx="18" ry="18"/>
<ellipse fill="none" stroke="black" cx="583" cy="-198" rx="22" ry="22"/>
<text text-anchor="middle" x="583" y="-192.9" font-family="Times,serif" font-size="14.00">§2</text>
</g>
<!-- A2 -->
<g id="node14" class="node"><title>A2</title>
<ellipse fill="#eeeeee" stroke="black" cx="295" cy="-196" rx="18" ry="18"/>
<text text-anchor="middle" x="295" y="-190.9" font-family="Times,serif" font-size="14.00">A2</text>
</g>
<!-- A2&#45;&gt;§2 -->
<g id="edge18" class="edge"><title>A2&#45;&gt;§2</title>
<path fill="none" stroke="black" d="M312.863,-192.159C328.605,-188.981 352.204,-184.721 373,-183 430.581,-178.234 445.47,-177.653 503,-183 519.077,-184.494 536.741,-187.643 551.371,-190.672"/>
<polygon fill="black" stroke="black" points="550.91,-194.152 561.423,-192.83 552.38,-187.308 550.91,-194.152"/>
<text text-anchor="start" x="427" y="-191.9" font-family="Times,serif" font-size="9.00">{a}</text>
<text text-anchor="middle" x="438" y="-181.9" font-family="Times,serif" font-size="9.00">CS[0]</text>
</g>
<!-- S4 -->
<g id="node16" class="node"><title>S4</title>
<ellipse fill="none" stroke="black" cx="391" cy="-210" rx="18" ry="18"/>
<text text-anchor="middle" x="391" y="-204.9" font-family="Times,serif" font-size="14.00">S4</text>
</g>
<!-- A2&#45;&gt;S4 -->
<g id="edge16" class="edge"><title>A2&#45;&gt;S4</title>
<path fill="none" stroke="black" d="M313.057,-198.633C327.136,-200.687 346.938,-203.574 363.059,-205.925"/>
<polygon fill="black" stroke="black" points="362.624,-209.399 373.024,-207.379 363.634,-202.472 362.624,-209.399"/>
<text text-anchor="start" x="331" y="-216.9" font-family="Times,serif" font-size="9.00">{a}</text>
<text text-anchor="middle" x="343" y="-206.9" font-family="Times,serif" font-size="9.00">CS[+]</text>
</g>
<!-- S4&#45;&gt;S4 -->
<g id="edge20" class="edge"><title>S4&#45;&gt;S4</title>
<path fill="none" stroke="black" d="M382.984,-226.29C381.051,-236.389 383.723,-246 391,-246 395.662,-246 398.434,-242.056 399.316,-236.566"/>
<polygon fill="black" stroke="black" points="402.807,-236.184 399.016,-226.29 395.81,-236.388 402.807,-236.184"/>
<text text-anchor="start" x="379" y="-257.9" font-family="Times,serif" font-size="9.00">{a}</text>
<text text-anchor="middle" x="391" y="-247.9" font-family="Times,serif" font-size="9.00">CS[+]</text>
</g>
<!-- S5 -->
<g id="node20" class="node"><title>S5</title>
<ellipse fill="none" stroke="black" cx="485" cy="-210" rx="18" ry="18"/>
<text text-anchor="middle" x="485" y="-204.9" font-family="Times,serif" font-size="14.00">S5</text>
</g>
<!-- S4&#45;&gt;S5 -->
<g id="edge22" class="edge"><title>S4&#45;&gt;S5</title>
<path fill="none" stroke="black" d="M409.312,-210.607C414.981,-210.769 421.248,-210.92 427,-211 436.777,-211.136 439.223,-211.136 449,-211 451.426,-210.966 453.945,-210.92 456.471,-210.865"/>
<polygon fill="black" stroke="black" points="456.78,-214.359 466.688,-210.607 456.603,-207.361 456.78,-214.359"/>
<text text-anchor="middle" x="438" y="-212.9" font-family="Times,serif" font-size="9.00">{a}</text>
</g>
<!-- S5&#45;&gt;§2 -->
<g id="edge26" class="edge"><title>S5&#45;&gt;§2</title>
<path fill="none" stroke="black" d="M502.975,-207.799C516.392,-206.156 535.081,-203.868 551.025,-201.915"/>
<polygon fill="black" stroke="black" points="551.522,-205.381 561.022,-200.691 550.671,-198.433 551.522,-205.381"/>
<text text-anchor="start" x="521" y="-217.9" font-family="Times,serif" font-size="9.00">{a}</text>
<text text-anchor="middle" x="532" y="-207.9" font-family="Times,serif" font-size="9.00">CS[0]</text>
</g>
<!-- S5&#45;&gt;S5 -->
<g id="edge24" class="edge"><title>S5&#45;&gt;S5</title>
<path fill="none" stroke="black" d="M476.984,-226.29C475.051,-236.389 477.723,-246 485,-246 489.662,-246 492.434,-242.056 493.316,-236.566"/>
<polygon fill="black" stroke="black" points="496.807,-236.184 493.016,-226.29 489.81,-236.388 496.807,-236.184"/>
<text text-anchor="start" x="474.5" y="-257.9" font-family="Times,serif" font-size="9.00">{a}</text>
<text text-anchor="middle" x="485" y="-247.9" font-family="Times,serif" font-size="9.00">CS[&#45;]</text>
</g>
</g>
</svg>
